<svg xmlns="http://www.w3.org/2000/svg" viewBox="0 0 32 32">
  <rect width="32" height="32" rx="7" fill="#6366f1"/>
  <!-- Nest bowl -->
  <path d="M7 20 Q7 27 16 27 Q25 27 25 20" fill="none" stroke="#c4b5fd" stroke-width="2.5" stroke-linecap="round"/>
  <!-- Nest weave -->
  <path d="M8.5 22 Q16 25.5 23.5 22" fill="none" stroke="#c4b5fd" stroke-width="1.5" stroke-linecap="round" opacity="0.5"/>
  <!-- Three eggs -->
  <ellipse cx="12.5" cy="18.5" rx="3" ry="3.8" fill="#e0e7ff" transform="rotate(-8 12.5 18.5)"/>
  <ellipse cx="16" cy="17.8" rx="3" ry="4" fill="#e0e7ff"/>
  <ellipse cx="19.5" cy="18.5" rx="3" ry="3.8" fill="#e0e7ff" transform="rotate(8 19.5 18.5)"/>
  <!-- Heart -->
  <path d="M16 10 C16 10 14.5 7.5 13 7.5 C11.2 7.5 10 9 10 10.2 C10 13 16 15 16 15 C16 15 22 13 22 10.2 C22 9 20.8 7.5 19 7.5 C17.5 7.5 16 10 16 10Z" fill="#f9a8d4" opacity="0.9"/>
</svg>
